<?xml version="1.0" standalone="no"?>
<!DOCTYPE svg PUBLIC "-//W3C//DTD SVG 20010904//EN"
 "http://www.w3.org/TR/2001/REC-SVG-20010904/DTD/svg10.dtd">
<svg version="1.0" xmlns="http://www.w3.org/2000/svg"
 width="900.000000pt" height="900.000000pt" viewBox="0 0 900.000000 900.000000"
 preserveAspectRatio="xMidYMid meet">
<metadata>
Created by potrace 1.16, written by Peter Selinger 2001-2019
</metadata>
<g transform="translate(0.000000,900.000000) scale(0.100000,-0.100000)"
fill="#000000" stroke="none">
<path d="M4370 8988 c-14 -6 -43 -17 -65 -26 -63 -25 -138 -85 -178 -143 -137
-200 -98 -455 93 -602 l35 -26 5 -223 5 -223 203 -3 202 -2 0 214 c0 160 3
218 13 226 6 5 36 28 65 51 121 92 182 259 153 410 -33 167 -137 285 -297 339
-65 21 -191 26 -234 8z"/>
<path d="M4395 7513 c-355 -34 -555 -76 -862 -178 -216 -73 -414 -169 -558
-273 -484 -349 -811 -904 -950 -1611 -39 -194 -45 -304 -45 -763 0 -398 -1
-427 -17 -431 -10 -3 -40 -8 -67 -12 -55 -7 -188 -61 -238 -96 -135 -94 -240
-231 -277 -359 -7 -25 -18 -58 -24 -75 -8 -21 -13 -323 -15 -1015 l-3 -985
-39 -24 c-184 -115 -250 -351 -155 -559 37 -80 134 -171 221 -207 58 -24 83
-29 159 -29 112 -1 181 20 259 79 131 98 201 262 175 413 -22 126 -79 220
-180 294 l-59 43 0 613 c0 581 1 614 18 607 47 -19 133 -45 185 -55 l58 -12
-2 -306 c-1 -292 6 -406 32 -542 6 -30 15 -64 19 -75 4 -11 16 -47 25 -80 22
-76 104 -250 157 -335 205 -325 544 -566 918 -654 166 -38 167 -39 1375 -38
1285 1 1216 -2 1435 56 347 93 692 364 882 693 39 69 88 171 88 185 0 8 4 18
9 23 10 10 50 143 70 230 24 106 30 211 31 523 0 207 4 322 10 323 6 1 13 2
18 3 4 2 29 6 56 11 27 4 76 18 110 31 33 13 61 24 63 24 2 0 3 -277 3 -615
l0 -614 -55 -35 c-130 -84 -213 -276 -184 -429 25 -136 126 -270 242 -325 162
-76 360 -40 488 87 139 139 168 347 72 523 -28 52 -128 152 -162 163 -21 6
-21 7 -21 933 0 510 -4 963 -9 1007 -36 308 -262 549 -565 604 -33 6 -61 12
-62 14 -2 2 -4 208 -5 458 -1 429 -4 502 -30 659 -33 202 -112 480 -193 675
-63 151 -178 375 -198 383 -4 2 -8 8 -8 13 0 29 -168 247 -280 362 -302 313
-623 482 -1174 618 -235 58 -589 97 -741 82z m435 -757 c176 -33 214 -42 365
-88 103 -31 120 -38 218 -82 32 -14 59 -26 61 -26 14 0 213 -122 272 -166 221
-166 385 -428 454 -724 11 -47 25 -107 32 -135 17 -73 14 -317 -5 -387 -28
-103 -76 -189 -143 -256 -77 -77 -153 -114 -293 -143 -92 -18 -127 -20 -285
-16 -171 5 -274 14 -411 36 -33 6 -87 12 -120 15 -77 6 -254 23 -379 36 -54 5
-114 8 -134 5 -20 -2 -66 -7 -102 -9 -172 -13 -466 -46 -640 -71 -156 -22
-394 -20 -516 5 -234 48 -363 164 -425 385 -31 110 -31 295 0 447 100 495 353
807 821 1011 86 38 234 87 335 111 61 15 119 29 130 32 20 5 105 19 205 34 87
13 463 3 560 -14z m268 -2965 c48 -25 86 -66 106 -115 50 -122 -38 -263 -170
-274 -136 -11 -233 86 -222 223 12 140 165 228 286 166z m539 -15 c53 -35 93
-108 93 -169 0 -156 -160 -254 -300 -184 -148 74 -142 303 10 372 53 24 146
15 197 -19z m494 11 c65 -34 109 -104 109 -172 0 -127 -84 -215 -205 -215 -72
0 -125 28 -163 85 -50 76 -54 143 -12 225 18 36 77 83 116 93 50 12 113 6 155
-16z"/>
<path d="M3225 5701 c-114 -53 -185 -165 -185 -293 0 -96 48 -200 116 -252
135 -103 295 -99 424 11 46 40 86 117 100 196 26 141 -65 295 -208 350 -69 27
-174 22 -247 -12z"/>
<path d="M5470 5709 c-126 -56 -200 -168 -200 -304 1 -223 227 -382 435 -305
72 27 148 99 184 175 35 72 34 188 -1 265 -32 71 -118 151 -187 174 -68 22
-174 20 -231 -5z"/>
<path d="M3442 752 c-18 -3 -22 -8 -16 -25 14 -44 83 -177 125 -239 38 -56
191 -218 244 -258 147 -111 301 -177 510 -220 77 -15 306 -8 400 13 344 77
627 298 781 611 24 49 44 96 44 103 0 9 -19 13 -67 14 -226 3 -2002 3 -2021 1z"/>
</g>
</svg>
